<svg id="コンポーネント_15_1" data-name="コンポーネント 15 – 1" xmlns="http://www.w3.org/2000/svg" width="53.106" height="63.626" viewBox="0 0 53.106 63.626">
  <g id="パス_12" data-name="パス 12" transform="translate(1.106 11.626)" fill="none">
    <path d="M26,0A26,26,0,1,1,0,26,26,26,0,0,1,26,0Z" stroke="none"/>
    <path d="M 26 7 C 15.52337265014648 7 7 15.52337265014648 7 26 C 7 36.47662734985352 15.52337265014648 45 26 45 C 36.47662734985352 45 45 36.47662734985352 45 26 C 45 15.52337265014648 36.47662734985352 7 26 7 M 26 0 C 40.35939788818359 0 52 11.64059829711914 52 26 C 52 40.35939788818359 40.35939788818359 52 26 52 C 11.64059829711914 52 0 40.35939788818359 0 26 C 0 11.64059829711914 11.64059829711914 0 26 0 Z" stroke="none" fill="#fff"/>
  </g>
  <rect id="長方形_35" data-name="長方形 35" width="34" height="14" transform="translate(4.558 0) rotate(19)" fill="#171717"/>
  <path id="多角形_9" data-name="多角形 9" d="M9,0l9,16H0Z" transform="matrix(0.574, 0.819, -0.819, 0.574, 20.497, 3.665)" fill="#fff"/>
</svg>
