<svg id="コンポーネント_10_1" data-name="コンポーネント 10 – 1" xmlns="http://www.w3.org/2000/svg" width="39.276" height="48.99" viewBox="0 0 39.276 48.99">
  <g id="パス_4" data-name="パス 4" transform="translate(5.359)" fill="none">
    <path d="M4.711,0h24.5a4.711,4.711,0,0,1,4.711,4.711V44.28a4.711,4.711,0,0,1-4.711,4.711H4.711A4.711,4.711,0,0,1,0,44.28L18.392,24.631,0,4.711A4.711,4.711,0,0,1,4.711,0Z" stroke="none"/>
    <path d="M 9.356678009033203 6 L 22.79999923706055 20.56061172485352 L 26.58368492126465 24.65874862670898 L 22.77206039428711 28.73092460632324 L 9.425214767456055 42.9901237487793 L 27.91627311706543 42.9901237487793 L 27.91627311706543 6 L 9.356678009033203 6 M 4.710597991943359 0 L 29.20567321777344 0 C 31.80726051330566 0 33.9162712097168 2.109001159667969 33.9162712097168 4.710586547851562 L 33.9162712097168 44.27953720092773 C 33.9162712097168 46.88111114501953 31.80726051330566 48.9901237487793 29.20567321777344 48.9901237487793 L 4.710597991943359 48.9901237487793 C 2.108997344970703 48.9901237487793 0 46.88111114501953 0 44.27953720092773 L 18.39159774780273 24.6307373046875 L 0 4.710586547851562 C 0 2.109001159667969 2.108997344970703 0 4.710597991943359 0 Z" stroke="none" fill="#fff"/>
  </g>
  <path id="パス_9" data-name="パス 9" d="M0,0H7.884" transform="translate(14.951 24.742) rotate(180)" fill="none" stroke="#fff" stroke-width="14.95"/>
  <g id="多角形_1" data-name="多角形 1" transform="translate(0 36.742) rotate(-90)" fill="#fff">
    <path d="M 22.34860420227051 7.5 L 1.651394963264465 7.5 L 12 0.6009299755096436 L 22.34860420227051 7.5 Z" stroke="none"/>
    <path d="M 12 1.201849937438965 L 3.302774429321289 7 L 20.69722557067871 7 L 12 1.201849937438965 M 12 0 L 24 8 L 0 8 L 12 0 Z" stroke="none" fill="#fff"/>
  </g>
</svg>
