<svg xmlns="http://www.w3.org/2000/svg" width="330.253" height="354.086" viewBox="0 0 330.253 354.086">
  <g id="コンポーネント_5_1" data-name="コンポーネント 5 – 1" transform="translate(0.085)">
    <path id="パス_3" data-name="パス 3" d="M165.084,37,330.168,149.381v241.7H0v-241.7Z" transform="translate(0 -36.999)" fill="#fff"/>
    <g id="長方形_4" data-name="長方形 4" transform="translate(33.506 140.04)" fill="#171717" stroke="#171717" stroke-width="5">
      <path d="M0,0H45a60,60,0,0,1,60,60v41a60,60,0,0,1-60,60H0a0,0,0,0,1,0,0V0A0,0,0,0,1,0,0Z" stroke="none"/>
      <path d="M5,2.5H45A57.5,57.5,0,0,1,102.5,60v41A57.5,57.5,0,0,1,45,158.5H5A2.5,2.5,0,0,1,2.5,156V5A2.5,2.5,0,0,1,5,2.5Z" fill="none"/>
    </g>
    <g id="パス_2" data-name="パス 2" transform="translate(298.297 301.298) rotate(180)" fill="#171717">
      <path d="M 91.31295013427734 163.4563140869141 L 2.500000238418579 163.4563140869141 L 2.500000238418579 9.34495735168457 L 91.31295013427734 163.4563140869141 Z" stroke="none"/>
      <path d="M 4.999992370605469 18.68998718261719 L 4.999992370605469 160.9563140869141 L 86.98677825927734 160.9563140869141 L 4.999992370605469 18.68998718261719 M -7.62939453125e-06 0 L 95.63909912109375 165.9563140869141 L -7.62939453125e-06 165.9563140869141 L -7.62939453125e-06 0 Z" stroke="none" fill="#171717"/>
    </g>
    <g id="パス_1" data-name="パス 1" transform="translate(183.164 140.662)" fill="#171717">
      <path d="M 91.31295013427734 158.1356353759766 L 2.500000238418579 158.1356353759766 L 2.500000238418579 4.024278163909912 L 91.31295013427734 158.1356353759766 Z" stroke="none"/>
      <path d="M 4.999992370605469 13.36930847167969 L 4.999992370605469 155.6356353759766 L 86.98677825927734 155.6356353759766 L 4.999992370605469 13.36930847167969 M -7.62939453125e-06 -5.3206787109375 L 95.63909912109375 160.6356353759766 L -7.62939453125e-06 160.6356353759766 L -7.62939453125e-06 -5.3206787109375 Z" stroke="none" fill="#171717"/>
    </g>
    <line id="線_9" data-name="線 9" x2="165" y2="2" transform="translate(0.006 218.54)" fill="none" stroke="#fff" stroke-width="15"/>
  </g>
</svg>
